# xmcd
#
# Track frame offsets:
#	150
#	12887
#	26683
#	38693
#	50888
#	72436
#	82840
#	97536
#	109713
#	119837
#	139039
#	149382
#	165624
#	184266
#
# Disc length: 2665 seconds
#
# Revision: 1
# Processed by: cddbd v1.5.2PL0 Copyright (c) Steve Scherf et al.
# Submitted via: audiograbber 1.83.01
#
DISCID=bb0a670e
DTITLE=Old School Basterds - Holy Sh*t
DYEAR=1900
DGENRE=
TTITLE0=Here Comes Santa Claus
TTITLE1=Last Christmas ( Twist Version )
TTITLE2=White Christmas
TTITLE3=Jingle Bells Rock
TTITLE4=Winterwonderland - Let it Snow! Let it Snow! Let it Snow!
TTITLE5=Jingle Bells
TTITLE6=Mele Kalikimaka
TTITLE7=Santa Claus Is Coming To Town
TTITLE8=Blue Christmas
TTITLE9=Christmas song
TTITLE10=Deck The Halls
TTITLE11=Oh Little Town Of Bethlehem
TTITLE12=All I Want For Christmas
TTITLE13=Oh Tannenbaum
EXTD=
EXTT0=
EXTT1=
EXTT2=
EXTT3=
EXTT4=
EXTT5=
EXTT6=
EXTT7=
EXTT8=
EXTT9=
EXTT10=
EXTT11=
EXTT12=
EXTT13=
PLAYORDER=
